# xmcd
#
# Track frame offsets:
#	150
#	16686
#	34067
#	56988
#	71852
#	82391
#	95631
#	106316
#	122407
#	135111
#	155374
#	169226
#	187505
#	215026
#	240795
#
# Disc length: 3723 seconds
#
# Revision: 5
# Processed by: cddbd v1.5.2PL0 Copyright (c) Steve Scherf et al.
# Submitted via: EZCDAudioConverter 2.1.7.1
#
DISCID=c10e890f
DTITLE=V/A - Trash! The Roots Of Punk
DYEAR=2006
DGENRE=MOJO
TTITLE0=New York Dolls - Personality Crisis
TTITLE1=T. Rex - Calling All Destroyers
TTITLE2=Hollywood Brats - Sick On You
TTITLE3=Jook - Watch Your Step
TTITLE4=Count Bishops - Teenage Letter
TTITLE5=Hammersmith Gorillas - Gatecrasher
TTITLE6=Kilburn and The High Roads - Rough Kids
TTITLE7=Dr. Feelgood - Riot In Cell Block No. 9
TTITLE8=Eddie and The Hot Rods - 96 Tears
TTITLE9=Mott The Hoople - Thunderbuck Ram
TTITLE10=Hawkwind - Motorhead
TTITLE11=Can - Mushroom
TTITLE12=Be-Bop Deluxe - Sound Track
TTITLE13=The Groundhogs - Cherry Red
TTITLE14=Iggy and The Stooges - Search And Destroy
EXTD=
EXTT0=
EXTT1=
EXTT2=
EXTT3=
EXTT4=
EXTT5=
EXTT6=
EXTT7=
EXTT8=
EXTT9=
EXTT10=
EXTT11=
EXTT12=
EXTT13=
EXTT14=
PLAYORDER=
